# xmcd CD database file
#
# Track frame offsets:
# 182
# 28392
# 59990
# 83715
# 103747
# 146390
# 178235
# 198092
# 233017
# 247065
# 263317
# 279542
# 296760
# 310475
#
# Disc length: 4377 seconds
# Revision: 17
# Processed by: cddbd v1.5.2PL0 Copyright (c) Steve Scherf et al.
# Submitted via: MusicBin 0.4
#
DISCID=d411170e
DTITLE=James Brown - Star Time [CD3 - Soul Brother No. 1)
DYEAR=1991
DGENRE=Funk
TTITLE0=Mother Popcorn
TTITLE1=Funky Drummer
TTITLE2=Get Up (I Feel Like Being A) Sex Machine
TTITLE3=Super Bad, pts. 1 and 2
TTITLE4=Talkin' Loud and Sayin' Nothing
TTITLE5=Get Up, Get Into It And Get Involved
TTITLE6=Soul Power, Parts 1 and 2
TTITLE7=Brother Rapp/Ain't It Funky Now (Live)
TTITLE8=Hot Pants, pt. 1
TTITLE9=I'm A Greedy Man, pt. 1
TTITLE10=Make It Funky, pt. 1
TTITLE11=It's A New Day (Live)
TTITLE12=I Got Ants In My Pants, pt. 1
TTITLE13=King Heroin
EXTD=
EXTT0=YEAR: 1969
EXTT1=YEAR: 1969
EXTT2=YEAR: 1970
EXTT3=YEAR: 1970
EXTT4=YEAR: 1970
EXTT5=YEAR: 1970
EXTT6=YEAR: 1971
EXTT7=YEAR: 1971
EXTT8=YEAR: 1971
EXTT9=YEAR: 1971
EXTT10=YEAR: 1971
EXTT11=YEAR: 1971
EXTT12=YEAR: 1971
EXTT13=YEAR: 1972
PLAYORDER=
